<?xml version="1.0" encoding="UTF-8" standalone="no"?>
<!-- Creator: CorelDRAW -->

<svg
   xml:space="preserve"
   width="144.803mm"
   height="72.2312mm"
   version="1.1"
   style="shape-rendering:geometricPrecision; text-rendering:geometricPrecision; image-rendering:optimizeQuality; fill-rule:evenodd; clip-rule:evenodd"
   viewBox="0 0 4857.81 2423.19"
   id="svg8"
   sodipodi:docname="Vazquez_Logo_A.svg"
   inkscape:version="1.4.2 (ebf0e940, 2025-05-08)"
   xmlns:inkscape="http://www.inkscape.org/namespaces/inkscape"
   xmlns:sodipodi="http://sodipodi.sourceforge.net/DTD/sodipodi-0.dtd"
   xmlns="http://www.w3.org/2000/svg"
   xmlns:svg="http://www.w3.org/2000/svg"><sodipodi:namedview
   id="namedview8"
   pagecolor="#ffffff"
   bordercolor="#000000"
   borderopacity="0.25"
   inkscape:showpageshadow="2"
   inkscape:pageopacity="0.0"
   inkscape:pagecheckerboard="0"
   inkscape:deskcolor="#d1d1d1"
   inkscape:document-units="mm"
   inkscape:zoom="1.0774968"
   inkscape:cx="292.8083"
   inkscape:cy="69.605777"
   inkscape:window-width="1920"
   inkscape:window-height="1027"
   inkscape:window-x="1440"
   inkscape:window-y="25"
   inkscape:window-maximized="1"
   inkscape:current-layer="Capa_x0020_1" />
 <defs
   id="defs2">
  <style
   type="text/css"
   id="style1">
   <![CDATA[
    .fil1 {fill:none;fill-rule:nonzero}
    .fil3 {fill:#5D0B0D}
    .fil2 {fill:#1C2D41;fill-rule:nonzero}
    .fil0 {fill:#5D0B0D;fill-rule:nonzero}
   ]]>
  </style>
   <clipPath
   id="id0"
   style="clip-rule:nonzero">
    <path
   d="M671.77 2241.6l3514.97 0 0 181.59 -3514.97 0 0 -181.59zm0 0z"
   id="path1" />
   </clipPath>
   <clipPath
   id="id1"
   style="clip-rule:nonzero">
    <path
   d="M1452.87 0l1005.97 0 0 833.25 -1005.97 0 0 -833.25zm0 0z"
   id="path2" />
   </clipPath>
 </defs>
 <g
   id="Capa_x0020_1"
   inkscape:label="Capa 1">
  <metadata
   id="CorelCorpID_0Corel-Layer" />
  <g
   id="g2">
  </g>
  <g
   style="clip-path:url(#id0);fill:#ffffff"
   clip-path="url(#id0)"
   id="g3">
   <g
   id="_2546555291472"
   style="fill:#ffffff">
    <path
   class="fil0"
   d="M791.36 2274.52c8.55,3.74 16.04,9.1 22.98,15.53l11.19 -13.92c-8,-8 -17.61,-13.92 -28.29,-18.17 -10.63,-4.81 -21.87,-6.93 -33.05,-6.93 -16.55,0 -30.97,4.25 -44.29,11.74 -13.36,7.49 -24.04,17.66 -32.04,31.02 -8,13.36 -11.74,27.27 -11.74,43.32 0,15.49 3.74,29.91 11.74,43.27 7.49,13.41 18.17,23.53 31.48,31.02 13.36,8.04 27.74,11.79 43.78,11.79 11.75,0 22.93,-2.17 34.12,-6.98 10.68,-4.81 20.3,-10.68 28.85,-18.68l-11.74 -12.85c-6.93,6.43 -14.93,11.24 -23.48,14.98 -8.55,3.74 -17.62,5.32 -26.68,5.32 -12.3,0 -24.04,-3.19 -34.72,-9.06 -10.12,-5.87 -18.68,-14.43 -25.06,-25.15 -5.87,-10.12 -9.06,-21.36 -9.06,-33.66 0,-12.3 3.19,-24.08 9.06,-34.26 6.38,-10.68 14.93,-19.23 25.06,-25.1 10.68,-5.87 22.42,-9.11 34.72,-9.11 9.06,0 18.12,2.13 27.18,5.87zm198.56 -11.75c-13.36,-7.49 -27.78,-11.74 -44.29,-11.74 -16.04,0 -30.97,4.25 -44.33,11.74 -13.87,7.49 -23.99,17.66 -31.99,31.02 -8,13.36 -12.3,27.27 -12.3,43.32 0,15.49 4.3,29.91 12.3,43.27 8,13.41 18.12,23.53 31.99,31.02 13.36,8.04 28.29,11.79 44.33,11.79 16.51,0 30.93,-3.74 44.29,-11.79 13.87,-7.49 24.55,-17.61 32.54,-31.02 7.44,-13.36 11.75,-27.78 11.75,-43.27 0,-16.04 -4.3,-29.96 -11.75,-43.32 -8,-13.36 -18.68,-23.53 -32.54,-31.02zm-78.45 15.49c10.68,-6.38 21.87,-9.06 34.16,-9.06 12.25,0 23.99,2.68 34.67,9.06 10.12,5.92 18.68,13.92 25.06,24.59 5.87,10.17 9.1,21.96 9.1,34.26 0,12.3 -3.23,24.04 -9.1,34.21 -6.38,10.68 -14.93,19.23 -25.06,25.1 -10.68,5.92 -22.42,9.11 -34.67,9.11 -12.3,0 -23.48,-3.19 -34.16,-9.11 -10.68,-5.87 -19.23,-14.42 -25.1,-25.1 -6.38,-10.17 -9.61,-21.91 -9.61,-34.21 0,-12.3 3.23,-24.08 9.61,-34.26 5.87,-10.68 14.42,-18.68 25.1,-24.59zm295.64 -25.66l0 137.95 -101.38 -137.95 -19.79 0 0 168.97 19.23 0 0 -137.39 101.38 137.39 19.74 0 0 -168.97 -19.19 0zm64.03 0l0 17.66 54.97 0 0 151.31 19.74 0 0 -151.31 54.97 0 0 -17.66 -129.68 0zm283.9 168.97l21.36 0 -75.77 -168.97 -19.74 0 -75.82 168.97 20.29 0 18.68 -43.32 91.81 0 19.19 43.32zm-103 -60.93l37.91 -87.19 38.42 87.19 -76.32 0zm279.64 -96.81c-13.36,-7.49 -27.74,-11.23 -44.29,-11.23l-68.33 0 0 168.97 67.77 0c16.55,0 31.48,-3.19 44.84,-10.68 12.81,-7.49 23.49,-17.66 31.48,-30.51 7.49,-12.81 11.18,-27.23 11.18,-43.27 0,-15.53 -3.7,-29.96 -11.18,-42.81 -8,-12.81 -18.12,-22.98 -31.48,-30.47zm-10.12 131.52c-10.17,5.92 -21.36,8.55 -33.66,8.55l-49.1 0 0 -133.65 48.03 0c12.81,0 24.04,3.19 34.72,9.1 10.12,5.87 18.12,13.87 24.55,24.04 5.87,10.17 8.5,21.41 8.5,34.21 0,12.3 -2.63,23.53 -8.5,33.7 -6.43,10.17 -14.43,18.17 -24.55,24.04zm217.7 -132.59c-13.87,-7.49 -28.25,-11.74 -44.8,-11.74 -16.04,0 -30.97,4.25 -44.29,11.74 -13.36,7.49 -24.04,17.66 -32.04,31.02 -8,13.36 -11.74,27.27 -11.74,43.32 0,15.49 3.74,29.91 11.74,43.27 8,13.41 18.68,23.53 32.04,31.02 13.32,8.04 28.25,11.79 44.29,11.79 16.55,0 30.93,-3.74 44.8,-11.79 13.36,-7.49 24.04,-17.61 32.04,-31.02 8,-13.36 11.74,-27.78 11.74,-43.27 0,-16.04 -3.74,-29.96 -11.74,-43.32 -8,-13.36 -18.68,-23.53 -32.04,-31.02zm-78.96 15.49c10.68,-6.38 21.87,-9.06 34.17,-9.06 12.25,0 23.99,2.68 34.67,9.06 10.12,5.92 18.68,13.92 25.1,24.59 5.87,10.17 9.06,21.96 9.06,34.26 0,12.3 -3.24,24.04 -9.06,34.21 -6.43,10.68 -14.98,19.23 -25.1,25.1 -10.68,5.92 -22.42,9.11 -34.67,9.11 -12.3,0 -23.49,-3.19 -34.17,-9.11 -10.68,-5.87 -18.68,-14.42 -25.1,-25.1 -6.38,-10.17 -9.57,-21.91 -9.57,-34.21 0,-12.3 3.19,-24.08 9.57,-34.26 6.43,-10.68 14.43,-18.68 25.1,-24.59zm284.96 143.31l21.87 0 -39.99 -57.74c12.81,-3.74 21.87,-10.17 28.24,-19.79 6.93,-9.11 10.17,-20.85 10.17,-34.77 0,-18.17 -5.87,-32.08 -17.61,-41.7 -11.75,-10.17 -28.29,-14.98 -49.1,-14.98l-64.03 0 0 168.97 19.19 0 0 -53.49 44.84 0c2.63,0 6.38,0 10.68,-0.51l35.74 54zm-46.41 -71.1l-44.84 0 0 -80.21 44.84 0c15.49,0 27.18,3.74 35.74,10.17 8,6.93 12.3,16.55 12.3,29.4 0,13.36 -4.3,23.53 -12.3,29.91 -8.55,6.98 -20.25,10.73 -35.74,10.73zm127 -97.87l0 168.97 117.42 0 0 -17.66 -98.19 0 0 -58.81 85.39 0 0 -17.66 -85.39 0 0 -57.19 94.96 0 0 -17.66 -114.19 0zm246.04 20.34c8,2.68 16,6.42 22.93,10.68l8 -17.1c-6.93,-4.81 -14.93,-8.55 -24.55,-11.24 -9.62,-2.68 -19.19,-4.25 -28.8,-4.25 -11.74,0 -21.87,1.57 -30.42,5.32 -9.06,3.74 -16,9.11 -20.8,15.53 -4.81,6.38 -6.93,13.87 -6.93,22.98 0,10.17 2.13,18.17 7.44,24.59 4.81,6.43 10.68,11.24 17.62,13.92 6.93,3.19 16,6.93 27.23,10.12 10.12,3.23 17.62,5.92 22.93,8.04 5.87,2.13 10.17,5.87 13.87,9.61 3.75,4.3 5.36,9.61 5.36,16.6 0,8.55 -3.24,14.93 -10.17,19.23 -7.44,4.81 -17.06,7.49 -29.31,7.49 -9.62,0 -19.23,-2.13 -29.36,-6.42 -10.17,-4.25 -19.23,-10.17 -26.72,-17.66l-8.51 16.6c8,8 18.12,14.42 29.36,19.23 11.19,4.81 22.93,6.98 35.23,6.98 11.69,0 22.37,-2.17 31.99,-5.92 9.06,-3.7 16.55,-9.06 21.36,-16 5.32,-7.49 7.44,-15.53 7.44,-25.15 0,-10.17 -2.13,-18.17 -6.93,-25.15 -5.32,-5.87 -11.19,-10.68 -18.12,-13.87 -6.93,-3.23 -16.55,-6.98 -27.74,-10.73 -9.62,-2.68 -17.11,-5.32 -22.42,-8 -5.87,-2.13 -10.12,-5.36 -13.87,-9.11 -3.74,-4.25 -5.36,-9.06 -5.36,-16.04 0,-6.93 3.24,-12.81 9.62,-17.11 6.42,-4.25 15.49,-6.43 26.16,-6.43 6.93,0 14.93,1.06 23.49,3.24zm289.22 148.63l21.36 0 -75.77 -168.97 -19.74 0 -75.82 168.97 20.3 0 19.23 -43.32 91.77 0 18.68 43.32zm-103 -60.93l37.91 -87.19 38.42 87.19 -76.33 0zm238.04 -87.7c8,2.68 15.44,6.42 22.93,10.68l8 -17.1c-6.93,-4.81 -15.49,-8.55 -24.55,-11.24 -9.61,-2.68 -19.19,-4.25 -28.8,-4.25 -11.74,0 -21.87,1.57 -30.42,5.32 -9.06,3.74 -16,9.11 -20.8,15.53 -4.81,6.38 -6.93,13.87 -6.93,22.98 0,10.17 2.13,18.17 7.44,24.59 4.81,6.43 10.68,11.24 17.61,13.92 6.93,3.19 16,6.93 27.23,10.12 10.12,3.23 17.61,5.92 22.93,8.04 5.36,2.13 10.17,5.87 13.87,9.61 3.74,4.3 5.36,9.61 5.36,16.6 0,8.55 -3.75,14.93 -10.68,19.23 -6.93,4.81 -16.55,7.49 -28.8,7.49 -9.61,0 -19.23,-2.13 -29.35,-6.42 -10.17,-4.25 -19.23,-10.17 -26.72,-17.66l-8.5 16.6c8,8 17.61,14.42 29.35,19.23 11.19,4.81 22.93,6.98 35.23,6.98 11.7,0 22.38,-2.17 31.99,-5.92 9.06,-3.7 16,-9.06 21.36,-16 4.81,-7.49 7.44,-15.53 7.44,-25.15 0,-10.17 -2.63,-18.17 -7.44,-25.15 -4.81,-5.87 -10.68,-10.68 -17.62,-13.87 -6.93,-3.23 -16.55,-6.98 -27.74,-10.73 -9.61,-2.68 -17.11,-5.32 -22.42,-8 -5.87,-2.13 -10.12,-5.36 -13.87,-9.11 -3.74,-4.25 -5.87,-9.06 -5.87,-16.04 0,-6.93 3.75,-12.81 10.12,-17.11 6.43,-4.25 14.93,-6.43 26.17,-6.43 6.93,0 14.93,1.06 23.48,3.24zm208.13 -10.17c-13.36,-7.49 -27.78,-11.74 -44.34,-11.74 -16,0 -30.93,4.25 -44.29,11.74 -13.87,7.49 -23.99,17.66 -31.99,31.02 -8,13.36 -12.3,27.27 -12.3,43.32 0,15.49 4.3,29.91 12.3,43.27 8,13.41 18.12,23.53 31.99,31.02 13.36,8.04 28.29,11.79 44.29,11.79 16.55,0 30.97,-3.74 44.34,-11.79 13.87,-7.49 24.55,-17.61 32.54,-31.02 7.44,-13.36 11.74,-27.78 11.74,-43.27 0,-16.04 -4.3,-29.96 -11.74,-43.32 -8,-13.36 -18.68,-23.53 -32.54,-31.02zm-78.45 15.49c10.68,-6.38 21.87,-9.06 34.12,-9.06 12.3,0 24.04,2.68 34.17,9.06 10.68,5.92 19.23,13.92 25.1,24.59 6.38,10.17 9.61,21.96 9.61,34.26 0,12.3 -3.24,24.04 -9.61,34.21 -5.87,10.68 -14.43,19.23 -25.1,25.1 -10.12,5.92 -21.87,9.11 -34.17,9.11 -12.25,0 -23.44,-3.19 -34.12,-9.11 -10.68,-5.87 -19.23,-14.42 -25.1,-25.1 -6.38,-10.17 -9.62,-21.91 -9.62,-34.21 0,-12.3 3.24,-24.08 9.62,-34.26 5.87,-10.68 14.42,-18.68 25.1,-24.59zm269.48 -3.74c9.06,3.74 16.55,9.1 22.93,15.53l11.75 -13.92c-8,-8 -17.62,-13.92 -28.25,-18.17 -11.24,-4.81 -21.91,-6.93 -33.66,-6.93 -16,0 -30.93,4.25 -43.74,11.74 -13.87,7.49 -24.55,17.66 -32.54,31.02 -7.49,13.36 -11.74,27.27 -11.74,43.32 0,15.49 4.25,29.91 11.74,43.27 8,13.41 18.68,23.53 31.99,31.02 13.36,8.04 27.78,11.79 43.78,11.79 11.74,0 22.93,-2.17 33.61,-6.98 11.19,-4.81 20.81,-10.68 28.8,-18.68l-11.75 -12.85c-6.38,6.43 -14.38,11.24 -22.93,14.98 -8.55,3.74 -17.61,5.32 -26.67,5.32 -12.81,0 -24.04,-3.19 -34.67,-9.06 -10.68,-5.87 -19.23,-14.43 -25.1,-25.15 -5.87,-10.12 -9.06,-21.36 -9.06,-33.66 0,-12.3 3.19,-24.08 9.06,-34.26 5.87,-10.68 14.42,-19.23 25.1,-25.1 10.63,-5.87 21.87,-9.11 34.67,-9.11 9.06,0 18.12,2.13 26.67,5.87zm86.45 -21.91l0 168.97 19.23 0 0 -168.97 -19.23 0zm212.38 168.97l21.36 0 -75.77 -168.97 -19.74 0 -75.77 168.97 20.25 0 18.68 -43.32 91.81 0 19.19 43.32zm-103 -60.93l37.91 -87.19 38.42 87.19 -76.32 0zm279.64 -96.81c-13.31,-7.49 -27.74,-11.23 -44.29,-11.23l-68.28 0 0 168.97 67.77 0c16.51,0 31.48,-3.19 44.29,-10.68 13.32,-7.49 23.99,-17.66 31.99,-30.51 7.49,-12.81 11.24,-27.23 11.24,-43.27 0,-15.53 -3.75,-29.96 -11.24,-42.81 -8,-12.81 -18.12,-22.98 -31.48,-30.47zm-10.12 131.52c-10.12,5.92 -21.36,8.55 -33.61,8.55l-49.1 0 0 -133.65 48.03 0c12.81,0 23.99,3.19 34.67,9.1 10.12,5.87 18.12,13.87 24.55,24.04 5.87,10.17 8.55,21.41 8.55,34.21 0,12.3 -2.68,23.53 -8.55,33.7 -6.43,10.17 -14.43,18.17 -24.55,24.04zm217.74 -132.59c-13.92,-7.49 -28.29,-11.74 -44.84,-11.74 -16,0 -30.97,4.25 -44.29,11.74 -13.87,7.49 -24.04,17.66 -32.04,31.02 -8,13.36 -11.74,27.27 -11.74,43.32 0,15.49 3.74,29.91 11.74,43.27 8,13.41 18.17,23.53 32.04,31.02 13.31,8.04 28.29,11.79 44.29,11.79 16.55,0 30.93,-3.74 44.84,-11.79 13.32,-7.49 23.99,-17.61 31.99,-31.02 8,-13.36 11.74,-27.78 11.74,-43.27 0,-16.04 -3.74,-29.96 -11.74,-43.32 -8,-13.36 -18.68,-23.53 -31.99,-31.02zm-79.01 15.49c10.68,-6.38 21.87,-9.06 34.17,-9.06 12.25,0 23.99,2.68 34.67,9.06 10.17,5.92 18.68,13.92 25.1,24.59 5.87,10.17 9.06,21.96 9.06,34.26 0,12.3 -3.19,24.04 -9.06,34.21 -6.42,10.68 -14.93,19.23 -25.1,25.1 -10.68,5.92 -22.42,9.11 -34.67,9.11 -12.3,0 -23.48,-3.19 -34.17,-9.11 -10.68,-5.87 -18.68,-14.42 -25.05,-25.1 -6.43,-10.17 -9.62,-21.91 -9.62,-34.21 0,-12.3 3.19,-24.08 9.62,-34.26 6.38,-10.68 14.38,-18.68 25.05,-24.59zm246.55 -5.32c8.55,2.68 16.04,6.42 23.49,10.68l8 -17.1c-6.93,-4.81 -15.44,-8.55 -24.55,-11.24 -9.57,-2.68 -19.19,-4.25 -28.8,-4.25 -11.74,0 -21.87,1.57 -30.42,5.32 -9.06,3.74 -16,9.11 -20.81,15.53 -4.81,6.38 -6.93,13.87 -6.93,22.98 0,10.17 2.13,18.17 7.44,24.59 4.81,6.43 10.68,11.24 17.61,13.92 6.93,3.19 16.04,6.93 27.23,10.12 10.12,3.23 17.61,5.92 22.93,8.04 5.36,2.13 10.17,5.87 13.87,9.61 3.74,4.3 5.36,9.61 5.36,16.6 0,8.55 -3.74,14.93 -10.68,19.23 -6.93,4.81 -16.55,7.49 -28.8,7.49 -9.61,0 -19.74,-2.13 -29.35,-6.42 -10.17,-4.25 -19.23,-10.17 -26.68,-17.66l-9.1 16.6c8.55,8 18.17,14.42 29.91,19.23 11.18,4.81 22.93,6.98 35.23,6.98 11.75,0 22.42,-2.17 31.99,-5.92 9.11,-3.7 16.04,-9.06 21.36,-16 4.81,-7.49 7.49,-15.53 7.49,-25.15 0,-10.17 -2.68,-18.17 -7.49,-25.15 -4.81,-5.87 -10.68,-10.68 -17.61,-13.87 -6.94,-3.23 -16.55,-6.98 -27.74,-10.73 -9.61,-2.68 -17.1,-5.32 -22.98,-8 -5.31,-2.13 -10.12,-5.36 -13.31,-9.11 -3.75,-4.25 -5.87,-9.06 -5.87,-16.04 0,-6.93 3.74,-12.81 10.12,-17.11 6.43,-4.25 14.94,-6.43 26.17,-6.43 6.93,0 14.93,1.06 22.93,3.24zm0 0z"
   id="path3"
   style="fill:#ffffff" />
   </g>
  </g>
  <path
   class="fil1"
   d="M671.77 2241.6l3514.97 0 0 181.59 -3514.97 0 0 -181.59zm0 0z"
   id="path4" />
  <path
   class="fil2"
   d="M562.99 1161.35l-212.38 566.23 -216.68 -566.23 -133.93 0 294.58 740 113.13 0 287.64 -740 -132.36 0zm697.47 740l131.8 0 -305.77 -740 -113.68 0 -296.7 740 128.61 0 62.97 -160.97 329.25 0 63.52 160.97zm-229.49 -581.76l123.85 312.24 -245.48 0 121.63 -312.24zm605.2 468.4l347.93 -604.23 0 -22.42 -519.26 0 0 112.8 332.49 0 -349.54 607.93 0 19.28 547.5 0 0 -113.35 -359.12 0zm1226.85 196.2l-142.48 -166.8c76.83,-68.97 123.8,-170.03 123.8,-286.07 0,-219.22 -165.46,-383.89 -389.03,-383.89 -224.68,0 -390.09,165.23 -390.09,383.89 0,218.67 165.41,383.39 390.09,383.39 65.09,0 125.38,-13.92 178.22,-39.07l92.88 108.55 136.61 0zm-407.71 -186.59c-152.65,0 -266.29,-114.97 -266.29,-266.29 0,-151.86 113.64,-266.79 266.29,-266.79 152.1,0 265.23,114.42 265.23,266.79 0,78.08 -29.91,145.95 -79.01,194.07l-113.63 -132.59 -136.61 0 161.16 188.2c-29.91,10.73 -62.46,16.6 -97.13,16.6zm832.47 117.1c169.71,0 296.2,-119.78 296.2,-290.37l0 -462.99 -122.19 0 0 455.55c0,109.06 -72.58,180.71 -174.01,180.71 -102.95,0 -175.54,-71.65 -175.54,-180.71l0 -455.55 -121.68 0 0 462.99c0,170.59 126.49,290.37 297.21,290.37zm610.52 -128.34l0 -206.42 280.15 0 0 -111.18 -280.15 0 0 -193.56 307.38 0 0 -113.86 -429.06 0 0 740 440.8 0 0 -114.97 -319.13 0zm600.34 1.62l347.97 -604.23 0 -22.42 -519.26 0 0 112.8 333 0 -350.05 607.93 0 19.28 547.5 0 0 -113.35 -359.16 0zm0 0z"
   id="path5"
   style="fill:#ffffff" />
  <g
   id="g5">
  </g>
  <g
   style="clip-path:url(#id1);fill:#ffffff"
   clip-path="url(#id1)"
   id="g6">
   <g
   id="_2546555290944"
   style="fill:#ffffff">
    <path
   class="fil3"
   d="M1463.27 0l287.09 0 704.96 823.4 -287.64 0 -704.41 -823.4zm0 0z"
   id="path6"
   style="fill:#ffffff" />
   </g>
  </g>
  <path
   class="fil1"
   d="M1452.87 0l1005.97 0 0 833.25 -1005.97 0 0 -833.25zm0 0z"
   id="path7" />
  <path
   class="fil3"
   d="M3094.64 411.68l-287.14 0 -352.18 411.72 287.09 0 352.22 -411.72zm0 0z"
   id="path8"
   style="fill:#ffffff" />
 </g>
</svg>
