<?xml version="1.0" encoding="UTF-8"?>
<!DOCTYPE svg PUBLIC "-//W3C//DTD SVG 1.1//EN" "http://www.w3.org/Graphics/SVG/1.1/DTD/svg11.dtd">
<!-- Creator: CorelDRAW -->
<svg xmlns="http://www.w3.org/2000/svg" xml:space="preserve" width="88.1421mm" height="26.4583mm" version="1.1" style="shape-rendering:geometricPrecision; text-rendering:geometricPrecision; image-rendering:optimizeQuality; fill-rule:evenodd; clip-rule:evenodd"
viewBox="0 0 11971.77 3593.66"
 xmlns:xlink="http://www.w3.org/1999/xlink"
 xmlns:xodm="http://www.corel.com/coreldraw/odm/2003">
 <defs>
  <style type="text/css">
   <![CDATA[
    .fil0 {fill:#5D0B0D}
   ]]>
  </style>
 </defs>
 <g id="Capa_x0020_1">
  <metadata id="CorelCorpID_0Corel-Layer"/>
  <path class="fil0" d="M6898.71 1032.43c-453.13,0 -820.36,366.66 -820.36,818.87 0,452.02 367.23,818.68 820.36,818.68 452.77,0 820.18,-366.66 820.18,-818.68 0,-452.21 -367.42,-818.87 -820.18,-818.87zm4696.84 -106.88l-793.97 -924.43 -2300.89 -1.13 795.11 925.56 1079.78 0 -1498.3 1742.74 -0.38 0 0.38 0 795.1 925.37 2299.38 0 -793.98 -924.24 -1079.97 -0.56 0.76 -0.57 1496.98 -1742.74zm-11595.55 925.75l1219.97 0 887.76 1032.42 887.74 -1032.42 -1.3 0 1498.47 -1742.74 1219.79 0 -1496.98 1742.74 -1496.8 1742.36 -1221.84 0 -1496.8 -1742.36zm6898.71 -1742.74c-964.29,0 -1745.92,780.12 -1745.92,1742.74 0,962.24 781.62,1742.36 1745.92,1742.36l2299.76 0 -772.07 -898.78c138.69,-249.87 217.86,-537.55 217.86,-843.57 0,-962.62 -781.43,-1742.74 -1745.55,-1742.74zm0 0z"/>
 </g>
</svg>
