<?xml version="1.0" encoding="UTF-8" standalone="no"?>
<!-- Creator: CorelDRAW -->

<svg
   xml:space="preserve"
   width="129.38127mm"
   height="129.42438mm"
   version="1.1"
   style="clip-rule:evenodd;fill-rule:evenodd;image-rendering:optimizeQuality;shape-rendering:geometricPrecision;text-rendering:geometricPrecision"
   viewBox="0 0 17573.02 17578.878"
   id="svg1"
   sodipodi:docname="logoBackend.svg"
   inkscape:version="1.4.2 (ebf0e940, 2025-05-08)"
   xmlns:inkscape="http://www.inkscape.org/namespaces/inkscape"
   xmlns:sodipodi="http://sodipodi.sourceforge.net/DTD/sodipodi-0.dtd"
   xmlns="http://www.w3.org/2000/svg"
   xmlns:svg="http://www.w3.org/2000/svg"><sodipodi:namedview
   id="namedview1"
   pagecolor="#ffffff"
   bordercolor="#000000"
   borderopacity="0.25"
   inkscape:showpageshadow="2"
   inkscape:pageopacity="0.0"
   inkscape:pagecheckerboard="0"
   inkscape:deskcolor="#d1d1d1"
   inkscape:document-units="mm"
   inkscape:zoom="2.0800026"
   inkscape:cx="142.78828"
   inkscape:cy="67.307607"
   inkscape:window-width="1920"
   inkscape:window-height="1027"
   inkscape:window-x="1440"
   inkscape:window-y="25"
   inkscape:window-maximized="1"
   inkscape:current-layer="svg1"><inkscape:page
     x="8.4638199e-12"
     y="4.7711145e-12"
     width="17573.02"
     height="17578.879"
     id="page2"
     margin="0"
     bleed="0" /></sodipodi:namedview>
 <defs
   id="defs1"><style
     type="text/css"
     id="style1">
   <![CDATA[
    .fil0 {fill:#5D0B0D}
   ]]>
  </style></defs>
 
<path
   style="fill:#ffffff"
   d="m 4833.4792,17557.965 c -214.461,-43.788 -390.205,-148.399 -552.428,-328.83 -333.99,-371.476 -333.394,-917.932 1.405,-1290.31 252.305,-280.623 407.038,-336.262 998.367,-358.991 l 501.249,-19.266 456.064,-646.86 456.064,-646.86 -2862.755,-17.968 -2862.75594,-17.968 -239.43,-117.893 c -291.268,-143.418 -530.437,-396.263 -646.470003,-683.436 L 2.5692056e-4,13224.686 V 7744.3472 C 2.5692056e-4,2587.2217 3.7622569,2253.4115 63.782257,2084.3254 190.08726,1728.5022 482.14026,1432.1107 853.10126,1283.2802 c 139.76,-56.0723 432.80394,-62.3148 3357.48694,-71.5219 l 3204.361,-10.0875 11.968,-427.64147 c 13.33,-476.2694 48.427,-562.6624 285.25,-702.156094 113.741,-66.9954009 186.654,-71.873300888131 1074.343,-71.873300888131 887.69,0 960.603,4.877899988131 1074.343,71.873300888131 236.8228,139.493694 271.9198,225.886694 285.2498,702.156094 l 11.969,427.64147 3204.361,10.0875 3204.361,10.0876 215.62,86.5918 c 285.392,114.6122 589.07,420.047 706.123,710.2086 l 84.483,209.4257 v 5174.877 5174.877 l -86.26,263.328 c -200.041,610.669 -687.24,1103.295 -1294.709,1309.132 -234.108,79.325 -258.472,80.121 -2777.14,90.673 l -2540.96,10.646 461.479,654.481 461.479,654.482 498.268,20.133 c 568.751,22.982 735.342,75.589 964.248,304.494 193.795,193.796 283.932,415.88 283.932,699.567 0,400.653 -219.573,742.961 -584.984,911.974 -164.683,76.171 -170.708,76.291 -4082.0208,81.597 -2154.402,2.922 -3973.695,-6.243 -4042.873,-20.368 z m 8000.1648,-456.552 c 174.686,-82.894 275.384,-241.765 293.77,-463.479 20.078,-242.106 -64.366,-423.623 -256.102,-550.508 l -144.49,-95.619 H 8789.1352 4851.4472 l -132.951,82.669 c -208.836,129.855 -291.629,293.688 -273.696,541.6 17.365,240.068 110.415,396.029 288.71,483.907 106.433,52.458 501.267,58.208 4047.569,58.946 3552.2818,0.74 3941.4368,-4.783 4052.5648,-57.516 z M 11276.909,15530.82 c -15.806,-26.244 -222.797,-325.226 -459.978,-664.405 l -431.24,-616.688 H 8786.5102 7187.3292 l -431.239,616.688 c -237.182,339.179 -444.172,638.161 -459.978,664.405 -23.78,39.483 405.91,47.716 2490.398,47.716 2084.4878,0 2514.1778,-8.233 2490.3988,-47.716 z m 4635.133,-1730.124 c 553.704,-117.329 985.594,-503.259 1183.261,-1057.34 61.017,-171.039 74.762,-324.944 91.008,-1019.025 l 19.136,-817.559 H 8809.3602 413.27226 v 1133.159 c 0,1249.843 6.055,1290.497 226.425,1520.235 127.169,132.575 274.555,219.919 438.40294,259.808 59.295,14.435 3366.365,27.62 7349.044,29.3 6166.3548,2.602 7277.4028,-4.609 7484.8978,-48.578 z m -8365.3458,-829.414 c -258.199,-136.112 -377.335,-329.89 -377.335,-613.748 0,-219.716 126.356,-437.266 315.815,-543.748 140.047,-78.711 168.516,-80.471 1301.334,-80.471 1132.818,0 1161.288,1.76 1301.3338,80.471 192.517,108.2 315.831,323.61 315.759,551.577 -0.07,219.256 -84.531,390.04 -263.764,533.338 l -138.043,110.365 -1173.6448,9.525 c -1013.216,8.222 -1188.382,1.756 -1281.455,-47.309 z m 2389.787,-411.424 c 39.929,-39.93 71.8728,-119.789 71.8728,-179.684 0,-59.894 -31.9438,-139.753 -71.8728,-179.683 -68.679,-68.679 -119.789,-71.873 -1149.973,-71.873 -1030.184,0 -1081.294,3.194 -1149.973,71.873 -39.929,39.93 -71.873,119.789 -71.873,179.683 0,59.895 31.944,139.754 71.873,179.684 68.679,68.679 119.789,71.873 1149.973,71.873 1030.184,0 1081.294,-3.194 1149.973,-71.873 z M 17158.959,6387.7387 c -0.888,-4641.8956 21.56,-4273.0294 -276.389,-4541.6485 -265.602,-239.4558 -101.732,-228.9412 -3568.043,-228.9412 h -3144.456 l -9.713,745.6854 -9.714,745.6854 189.397,0.2004 c 359.442,0.3804 578.256,104.2742 695.924,330.4289 59.632,114.6108 65.742,343.3097 12.886,482.3306 -20.682,54.3982 -476.921,540.898 -1013.864,1081.1105 -1063.9948,1070.4729 -1098.7158,1095.8312 -1392.2248,1016.7976 -120.119,-32.3447 -284.585,-181.728 -1000.545,-908.7855 -1177.283,-1195.5315 -1130.567,-1139.1524 -1147.774,-1385.1947 -11.823,-169.0659 0.02,-224.3983 69.799,-326.0904 144.592,-210.7239 241.352,-258.8924 564.559,-281.0455 l 293.543,-20.1199 -9.697,-740.5014 -9.698,-740.5014 h -3144.456 c -3466.31094,0 -3302.43994,-10.5146 -3568.04194,228.9412 -297.95,268.6191 -275.502,-100.2471 -276.39,4541.6485 l -0.789,4123.7303 H 8786.5102 17159.749 Z M 4807.3232,9273.9234 c -639.962,-155.0707 -1197.627,-669.0984 -1418.076,-1307.1125 -81.871,-236.9473 -83.075,-263.1806 -83.075,-1809.9943 0,-1536.2566 1.595,-1571.7159 75.177,-1671.0541 41.348,-55.8205 128.64,-137.8777 193.982,-182.3493 114.59,-77.9894 147.744,-80.8574 934.718,-80.8574 786.989,0 820.243,2.8768 938.023,81.1475 67.16,44.6311 158.494,153.1724 202.966,241.2028 78.288,154.9692 80.857,193.0179 80.857,1197.3678 v 1037.3125 l 105.046,105.0456 105.045,105.0456 h 2844.524 2844.5238 l 105.045,-105.0456 105.046,-105.0456 V 5742.2739 c 0,-1004.3499 2.569,-1042.3986 80.857,-1197.3678 44.472,-88.0304 135.807,-196.5717 202.966,-241.2028 117.78,-78.2707 151.035,-81.1475 938.023,-81.1475 786.974,0 820.128,2.868 934.718,80.8574 65.343,44.4716 152.634,126.5288 193.982,182.3493 73.582,99.3382 75.178,134.7975 75.178,1671.0541 0,1546.8137 -1.204,1573.047 -83.076,1809.9943 -229.787,665.0406 -836.608,1200.5961 -1495.753,1320.0914 -327.684,59.4053 -7631.6168,47.3764 -7880.6968,-12.9789 z M 12684.38,8875.1687 c 590.919,-153.9148 1057.046,-647.2617 1168.922,-1237.1815 20.29,-106.9879 36.212,-784.0258 36.212,-1539.8169 0,-1204.7105 -6.357,-1355.8976 -59.475,-1414.5926 -53.788,-59.4355 -127.239,-65.7188 -768.238,-65.7188 -614.966,0 -715.29,7.8523 -758.084,59.3348 -38.461,46.2709 -53.277,298.088 -67.289,1143.7254 l -17.968,1084.3905 -98.021,148.0075 c -53.912,81.4041 -175.198,193.373 -269.525,248.8197 l -171.504,100.8122 h -2892.8998 -2892.9 l -171.504,-100.8122 c -94.327,-55.4467 -215.613,-167.4156 -269.524,-248.8197 l -98.022,-148.0075 -17.968,-1084.3905 c -14.012,-845.6374 -28.827,-1097.4545 -67.289,-1143.7254 -42.767,-51.4499 -142.678,-59.3348 -751.84,-59.3348 -603.27,0 -711.803,8.4023 -768.238,59.4747 -61.454,55.6151 -65.719,147.4156 -65.719,1414.5926 0,1422.6909 15.873,1613.481 160.516,1929.4227 108.785,237.6178 428.177,578.3331 660.85,704.9697 377.048,205.2149 245.663,199.0055 4265.104,201.5727 3216.1158,2.0541 3730.7118,-4.8769 3914.4038,-52.7226 z M 9786.8382,4690.1331 c 795.2588,-816.9403 907.7358,-946.3836 897.7558,-1033.1786 l -11.41,-99.2267 -407.22,-17.9683 c -349.2208,-15.4092 -414.4788,-27.9035 -458.1918,-87.726 -41.999,-57.4769 -50.972,-323.5101 -50.972,-1511.1359 0,-1073.15647 -11.017,-1452.39497 -43.124,-1484.50227 -61.321,-61.3207 -1793.011,-61.3207 -1854.331,0 -32.108,32.1073 -43.124,411.3458 -43.124,1484.50227 0,1187.4321 -8.978,1453.6683 -50.959,1511.1359 -43.573,59.6478 -104.77,71.5566 -422.255,82.1697 -386.149,12.9084 -461.139,38.39 -461.139,156.6944 0,43.5573 346.494,425.9131 907.4,1001.3157 709.264,727.5947 927.162,930.9629 997.902,931.3616 71.351,0.4022 282.884,-197.1172 999.668,-933.4418 z"
   id="path9"
   inkscape:label="archivo"
   inkscape:export-filename="archivo.svg"
   inkscape:export-xdpi="96"
   inkscape:export-ydpi="96" /></svg>
