<?xml version="1.0" encoding="UTF-8" standalone="no"?>
<!-- Creator: CorelDRAW -->

<svg
   xml:space="preserve"
   width="126.49551mm"
   height="129.60054mm"
   version="1.1"
   style="clip-rule:evenodd;fill-rule:evenodd;image-rendering:optimizeQuality;shape-rendering:geometricPrecision;text-rendering:geometricPrecision"
   viewBox="0 0 17181.067 17602.805"
   id="svg1"
   sodipodi:docname="logoBackend.svg"
   inkscape:version="1.4.2 (ebf0e940, 2025-05-08)"
   xmlns:inkscape="http://www.inkscape.org/namespaces/inkscape"
   xmlns:sodipodi="http://sodipodi.sourceforge.net/DTD/sodipodi-0.dtd"
   xmlns="http://www.w3.org/2000/svg"
   xmlns:svg="http://www.w3.org/2000/svg"><sodipodi:namedview
   id="namedview1"
   pagecolor="#ffffff"
   bordercolor="#000000"
   borderopacity="0.25"
   inkscape:showpageshadow="2"
   inkscape:pageopacity="0.0"
   inkscape:pagecheckerboard="0"
   inkscape:deskcolor="#d1d1d1"
   inkscape:document-units="mm"
   inkscape:zoom="2.0800026"
   inkscape:cx="142.78828"
   inkscape:cy="67.307607"
   inkscape:window-width="1920"
   inkscape:window-height="1027"
   inkscape:window-x="1440"
   inkscape:window-y="25"
   inkscape:window-maximized="1"
   inkscape:current-layer="svg1"><inkscape:page
     x="-6.0274927e-12"
     y="0"
     width="17181.066"
     height="17602.805"
     id="page2"
     margin="0"
     bleed="0" /></sodipodi:namedview>
 <defs
   id="defs1"><style
     type="text/css"
     id="style1">
   <![CDATA[
    .fil0 {fill:#5D0B0D}
   ]]>
  </style></defs>
 
<path
   style="fill:#ffffff"
   d="m 2760.0994,17534.565 c -423.393,-135.348 -781.012,-447.371 -962.917,-840.145 -70.997,-153.3 -364.974,-1315.621 -949.24901,-3753.127 C -65.480616,9130.6719 -67.496616,9119.8079 58.864384,8689.5999 265.60839,7985.7219 882.09539,7542.0889 1653.4854,7542.0889 h 324.563 v -3124.719 c 0,-2176.712 12.259,-3182.496 40.406,-3315.156 90.022,-424.27195 377.079,-791.43695 768.952,-983.53695 l 214.836,-105.315 5516.275,-9.7900007 c 4981.3736,-8.841 5533.6986,-4.20000002 5695.9586,47.8640007 403.981,129.624 724.166,430.491 886.822,833.315 l 83.468,206.70995 10.085,3225.314 10.085,3225.314 295.376,0.879 c 354.426,1.054 544.359,41.169 810.071,171.094 361.556,176.789 656.232,524.22 795.658,938.101 150.158,445.737 156.47,410.725 -773.192,4289.1301 -580.84,2423.175 -878.059,3598.704 -947.303,3746.672 -190.192,406.426 -543.835,713.582 -976.687,848.3 -210.878,65.633 -420.824,68.015 -5830.6536,66.152 -5341.016,-1.839 -5621.853,-5.115 -5818.106,-67.852 z m 11698.4036,-448.856 c 240.415,-121.737 469.387,-353.931 567.302,-575.284 37.522,-84.826 450.218,-1745.244 917.102,-3689.818 959.025,-3994.3471 927.01,-3799.9221 696.827,-4231.7891 -139.374,-261.493 -298.091,-411.095 -572.881,-539.982 l -199.291,-93.476 H 8589.6354 1311.7094 l -243.363,119.807 c -396.37301,195.134 -671.51001,627.672 -671.51001,1055.666 0,212.205 1648.57101,7131.8921 1758.14101,7379.5921 134.233,303.455 476.346,584.703 809.186,665.224 60.474,14.63 2624.619,24.086 5698.101,21.014 l 5588.1486,-5.585 z M 7548.8004,15267.608 c -71.541,-16.822 -175.51,-84.332 -242.572,-157.509 -181.067,-197.578 -164.12,-333.356 148.201,-1187.35 l 262.156,-716.828 -203.179,-149.572 c -508.316,-374.202 -787.967,-1052.123 -685.242,-1661.145 171.027,-1013.968 1144.802,-1709.4351 2107.83,-1505.4061 737.452,156.2391 1291.7586,730.7071 1416.5266,1468.0521 107.059,632.688 -169.853,1319.162 -685.1456,1698.499 l -203.179,149.572 262.157,716.828 c 312.0796,853.339 329.2156,989.989 148.773,1186.431 -73.957,80.514 -169.517,139.32 -260.541,160.33 -175.864,40.593 -1891.773,39.013 -2065.785,-1.902 z m 2033.824,-445.749 c 10.828,-28.218 -110.966,-409.872 -270.653,-848.12 -159.687,-438.248 -290.341,-841.136 -290.341,-895.308 0,-83.391 37.194,-120.613 242.573,-242.752 290.286,-172.634 510.576,-427.867 619.085,-717.286 112.792,-300.838 94.102,-770.797 -42.274,-1062.986 -122.799,-263.099 -403.543,-544.011 -667.163,-667.561 -182.703,-85.626 -249.003,-96.604 -583.46,-96.604 -360.606,0 -387.272,5.389 -601.472,121.552 -275.764,149.55 -522.436,407.362 -649.84,679.186 -84.339,179.942 -96.312,250.166 -96.312,564.855 0,318.21 11.178,382.128 97.608,558.111 139.264,283.562 306.897,463.692 580.353,623.614 204.769,119.754 238.423,153.766 238.423,240.956 0,55.836 -130.082,460.651 -289.071,899.588 -158.989,438.937 -280.782,819.666 -270.652,846.064 28.204,73.5 1954.955,70.285 1983.196,-3.309 z m 4198.8866,-4636.017 c -47.02,-71.761 -49.425,-102.355 -13.417,-170.699 24.129,-45.7971 61.664,-95.1481 83.411,-109.6691 21.748,-14.521 395.759,-26.65 831.136,-26.953 874.91,-0.608 951.333,16.255 951.333,209.9201 0,180.324 -22.952,184.833 -940.712,184.833 h -854.464 z m -943.934,-835.5581 c -88.322,-35.334 -121.725,-192.592 -60.693,-285.738 l 55.688,-84.991 h 1357.577 c 1007.978,0 1368.682,11.105 1400.701,43.124 64.443,64.443 52.036,225.164 -22.595,292.704 -58.747,53.165 -204.581,59.174 -1374.577,56.638 -719.872,-1.561 -1330.118,-11.342 -1356.101,-21.737 z m 1933.917,-4982.186 c 0,-3477.73995 7.258,-3354.252 -212.829,-3621.25595 -56.658,-68.736 -189.621,-172.944 -295.475,-231.575 l -192.46,-106.602 -5402.9196,-9.444 c -3611.021,-6.311 -5448.349,2.79 -5539.898,27.441 -214.993,57.892 -472.013,251.742 -591.799,446.346 l -108.857,176.85095 -9.545,3246.115 -9.546,3246.115 h 6181.665 6181.6636 z M 3703.0074,6463.9899 c -80.249,-80.249 -89.878,-150.767 -34.672,-253.919 36.309,-67.844 106.915,-69.511 2944.238,-69.511 2594.845,0 2913.101,6.064 2963.509,56.472 76.912,76.912 70.928,180.628 -15.402,266.958 -70.668,70.668 -119.789,71.873 -2928.836,71.873 -2809.048,0 -2858.169,-1.205 -2928.837,-71.873 z m 71.873,-1354.39 c -148.092,-53.492 -184.323,-222.182 -71.873,-334.633 71.144,-71.144 119.789,-71.873 4797.542,-71.873 4677.7526,0 4726.3976,0.729 4797.5416,71.873 84.614,84.614 91.555,174.965 20.869,271.641 -50,68.383 -144.014,69.883 -4770.5896,76.11 -2595.772,3.494 -4743.842,-2.409 -4773.49,-13.118 z m 195.87,-1427.344 c -144.068,-62.752 -295.396,-246.085 -322.536,-390.752 -11.943,-63.665 -16.63,-417.831 -10.414,-787.037 12.361,-734.206 21.135,-766.206 258.718,-943.609 98.213,-73.336 131.375,-74.192 3241.357,-83.657 3073.1886,-9.354 3145.1976,-7.999 3281.9586,61.772 76.906,39.234 177.845,132.481 224.308,207.215 81.336,130.823 84.479,162.623 84.479,854.612 0,691.989 -3.143,723.789 -84.479,854.613 -46.463,74.733 -146.891,167.72 -223.172,206.635 -134.858,68.8 -224.461,70.718 -3239.6606,69.35 -2496.907,-1.133 -3122.315,-10.705 -3210.559,-49.142 z m 6275.0886,-381.956 c 64.863,-34.713 69.511,-81.484 69.511,-699.5 0,-618.016 -4.648,-664.786 -69.511,-699.5 -46.328,-24.794 -1073.1246,-37.201 -3078.7376,-37.201 -2749.686,0 -3014.895,5.13 -3074.945,59.475 -58.763,53.179 -65.719,124.203 -65.719,670.982 0,518.584 9.037,621.494 59.474,677.227 56.718,62.672 199.246,65.719 3074.946,65.719 2009.917,0 3038.6506,-12.406 3084.9816,-37.202 z"
   id="path10"
   inkscape:label="memo" /></svg>
