<?xml version="1.0" encoding="UTF-8" standalone="no"?>
<!-- Creator: CorelDRAW -->

<svg
   xml:space="preserve"
   width="129.51036mm"
   height="130.16682mm"
   version="1.1"
   style="clip-rule:evenodd;fill-rule:evenodd;image-rendering:optimizeQuality;shape-rendering:geometricPrecision;text-rendering:geometricPrecision"
   viewBox="0 0 17590.553 17679.72"
   id="svg1"
   sodipodi:docname="logoBackend.svg"
   inkscape:version="1.4.2 (ebf0e940, 2025-05-08)"
   xmlns:inkscape="http://www.inkscape.org/namespaces/inkscape"
   xmlns:sodipodi="http://sodipodi.sourceforge.net/DTD/sodipodi-0.dtd"
   xmlns="http://www.w3.org/2000/svg"
   xmlns:svg="http://www.w3.org/2000/svg"><sodipodi:namedview
   id="namedview1"
   pagecolor="#ffffff"
   bordercolor="#000000"
   borderopacity="0.25"
   inkscape:showpageshadow="2"
   inkscape:pageopacity="0.0"
   inkscape:pagecheckerboard="0"
   inkscape:deskcolor="#d1d1d1"
   inkscape:document-units="mm"
   inkscape:zoom="2.0800026"
   inkscape:cx="142.78828"
   inkscape:cy="67.307607"
   inkscape:window-width="1920"
   inkscape:window-height="1027"
   inkscape:window-x="1440"
   inkscape:window-y="25"
   inkscape:window-maximized="1"
   inkscape:current-layer="svg1"><inkscape:page
     x="-8.8960861e-12"
     y="-2.1726209e-11"
     width="17590.553"
     height="17679.721"
     id="page2"
     margin="0"
     bleed="0" /></sodipodi:namedview>
 <defs
   id="defs1"><style
     type="text/css"
     id="style1">
   <![CDATA[
    .fil0 {fill:#5D0B0D}
   ]]>
  </style></defs>
 
<path
   style="fill:#ffffff"
   d="M 2115.4132,17606.911 C 1095.3072,17339.858 362.20824,16601.219 76.106238,15552.193 c -56.486,-207.11 -62.235,-719.953 -73.0269997,-6513.7224 -8.297,-4454.821 -0.106,-6377.997 28.0849997,-6594.374 C 118.71224,1772.1416 367.65924,1272.2246 857.29524,785.1198 1127.2762,516.5337 1221.5502,449.0536 1543.6422,293.8407 c 658.28,-317.218003 69.44,-293.43640256 7265.576,-293.43640256 6281.3038,0 6379.0698,1.06729996 6659.1538,72.69589956 1059.257,270.893903 1851.58,1096.270403 2069.061,2155.376403 70.813,344.851 70.837,12879.6534 0.03,13224.6844 -217.675,1060.624 -1008.134,1884.049 -2069.087,2155.377 -280.253,71.671 -374.415,72.668 -6684.2158,70.717 -6235.364,-1.928 -6406.872,-3.789 -6668.743,-72.344 z m 13273.9158,-391.848 c 442.513,-113.175 750.242,-293.67 1100.93,-645.735 231.885,-232.795 338.331,-373.132 437.746,-577.117 281.233,-577.043 258.04,-34.571 270.793,-6333.8334 l 11.404,-5633.069 H 8817.9262 425.65024 l 0.531,5615.101 c 0.59,6232.8804 -14.906,5827.2164 242.63,6351.8014 99.532,202.74 208.238,345.742 438.70696,577.117 346.121,347.48 656.217,531.253 1086.773,644.059 252.679,66.202 481.751,68.655 6589.865,70.565 6183.9268,1.933 6334.3978,0.364 6605.1728,-68.889 z M 2085.9232,15481.911 c -71.48,-71.48 -51.246,-234.606 36.745,-296.237 70.945,-49.691 466.229,-55.942 3537.42,-55.942 2026.52,0 3493.67,13.732 3544.82,33.179 110.848,42.144 147.007,173.725 77.071,280.46 l -53.508,81.664 h -3549.712 c -2712.972,0 -3559.877,-10.166 -3592.836,-43.124 z m 9091.9718,0 c -71.479,-71.48 -51.245,-234.606 36.746,-296.237 69.214,-48.479 281.488,-55.942 1591.184,-55.942 1309.696,0 1521.97,7.463 1591.185,55.942 87.99,61.631 108.225,224.757 36.745,296.237 -62.046,62.046 -3193.814,62.046 -3255.86,0 z m 0,-1185.91 c -64.443,-64.443 -52.036,-225.164 22.595,-292.704 59.847,-54.161 292.631,-59.475 2605.407,-59.475 2491.772,0 2541.044,1.356 2611.561,71.874 86.497,86.496 89.865,138.003 15.93,243.56 l -55.942,79.869 h -2578.214 c -1957.361,0 -2588.597,-10.384 -2621.337,-43.124 z m -5379.7168,-338.883 c -1833.844,-198.493 -3324.432,-1382.774 -3899.016,-3097.79 -283.34,-845.715 -288.841,-1868.6734 -14.752,-2743.3844 361.721,-1154.373 1205.072,-2138.846 2301.483,-2686.598 585.96,-292.738 1139.207,-431.465 1827.905,-458.347 2918.966,-113.939 5164.0748,2530.934 4581.3678,5397.1274 -177.625,873.697 -577.826,1608.278 -1235.9148,2268.566 -649.483,651.654 -1457.276,1086.368 -2327.952,1252.788 -306.491,58.583 -976.997,95.361 -1233.121,67.638 z m 822.28,-718.551 c 273.294,-305.204 309.725,-361.854 309.725,-481.627 v -135.74 l -170.699,54.847 c -306.016,98.326 -967.77,72.746 -1286.983,-49.748 -39.469,-15.145 -51.657,13.199 -51.657,120.129 0,122.285 36.64,184.008 290.281,488.989 284.755,342.395 293.224,349.039 444.944,349.039 150.095,0 163.813,-10.218 464.389,-345.889 z m -1363.252,76.364 -132.514,-161.715 -274.18,0.55 c -382.353,0.768 -414.926,39.662 -121.818,145.456 297.647,107.432 509.347,169.228 595.73,173.896 52.119,2.816 38.556,-29.103 -67.218,-158.187 z m 2034.805,103.845 c 633.7,-187.881 693.617,-264.036 208.503,-265.01 l -274.18,-0.55 -132.513,161.715 c -153.173,186.927 -127.468,200.396 198.19,103.845 z m -3110.982,-572.691 c 98.826,-30.138 329.27,-64.745 512.097,-76.904 l 332.414,-22.108 v -151.925 c 0,-142.099 -13.058,-161.999 -201.919,-307.704 -349.684,-269.78 -617.616,-650.588 -767.231,-1090.459 -54.171,-159.266 -82.044,-188.827 -273.12,-289.661 -237.348,-125.252 -396.154,-317.217 -448.25,-541.847 -54.808,-236.318 -41.041,-1405.5054 20.718,-1759.6624 245.558,-1408.131 1422.938,-2394.859 2855.712,-2393.29 301.605,0.33 490.952,20.68 700.764,75.312 987.458,257.12 1774.793,1023.62 2069.684,2014.916 70.315,236.369 81.743,372.334 95.387,1134.882 14.903,832.8384 12.424,873.4954 -64.112,1051.4074 -93.842,218.143 -251.205,367.148 -480.032,454.538 -91.021,34.761 -165.493,86.386 -165.493,114.723 0,118.795 -228.949,584.911 -397.231,808.718 -99.711,132.613 -276.61,310.499 -393.109,395.304 -204.56,148.907 -211.886,159.867 -213.851,319.904 l -2.035,165.715 314.446,18.239 c 172.945,10.031 414.388,46.432 536.54,80.889 l 222.095,62.65 227.113,-172.559 c 1019.622,-774.703 1615.5418,-1969.3 1620.9918,-3249.4844 4.812,-1130.468 -410.1788,-2131.736 -1214.8838,-2931.211 -1042.999,-1036.22 -2593.613,-1439.134 -3994.781,-1038.009 -401.877,115.05 -1038.204,427.112 -1342.26,658.261 -1044.403,793.975 -1651.948,2004.456 -1651.948,3291.366 0,1078.6484 384.101,2035.8084 1131.36,2819.2964 284.984,298.801 670.999,614.641 750.284,613.889 22.532,-0.214 121.824,-25.048 220.65,-55.186 z m 2586.836,-594.145 c 506.21,-157.367 974.007,-622.306 1177.723,-1170.529 108.654,-292.399 136.696,-1335.8014 44.486,-1655.2534 -237.294,-822.079 -957.959,-1373.358 -1798.027,-1375.413 -677.899,-1.659 -1358.455,429.334 -1650.258,1045.101 -162.951,343.862 -199.162,548.975 -198.514,1124.4544 0.569,504.496 53.759,816.68 183.045,1074.326 424.63,846.222 1340.573,1237.401 2241.545,957.314 z m -1003.056,-700.472 c -115.565,-115.564 -47.968,-269.105 166.686,-378.613 338.436,-172.658 824.212,38.72 727.121,316.395 -42.518,121.602 -192.026,152.851 -322.446,67.396 -108.618,-71.168 -210.745,-72.162 -268.467,-2.611 -58.52,70.512 -231.279,69.048 -302.894,-2.567 z m 302.894,-877.881 c -96.993,-96.993 -100.804,-393.918 -6.154,-479.574 82.823,-74.954 199.874,-76.241 273.112,-3.003 83.061,83.061 76.821,417.086 -9.247,494.976 -87.335,79.038 -170.265,75.048 -257.711,-12.399 z m -982.688,-137.592 c -128.578,-142.077 -20.131,-401.457 167.849,-401.457 99.958,0 239.853,138.168 239.853,236.892 0,38.8 -25.174,106.487 -55.943,150.415 -70.526,100.689 -266.314,108.566 -351.759,14.15 z m 1903.994,11.602 c -89.335,-89.335 -105.114,-194.257 -43.384,-288.47 147.365,-224.907 454.096,-105.026 416.812,162.904 -22.151,159.181 -259.877,239.117 -373.428,125.566 z m -2270.98,-752.5424 c -81.076,-123.738 -8.339,-259.95 196.37,-367.732 269.145,-141.708 600.627,-105.653 802.922,87.334 230.278,219.683 -0.879,492.9874 -250.735,296.452 -116.207,-91.408 -285.055,-91.408 -423.077,0 -145.224,96.178 -255.507,90.738 -325.48,-16.054 z m 1912.262,22.208 c -126.239,-139.492 -32.341,-305.449 236.339,-417.71 280.564,-117.228 697.188,-14.685 815.75,200.779 46.412,84.346 45.377,104.947 -9.478,188.668 -74.041,113 -181.335,120.2 -329.448,22.109 -136.858,-90.637 -256.342,-90.598 -405.156,0.134 -146.158,89.113 -231.303,90.777 -308.007,6.02 z m -2682.85,353.2114 c 0,-197.6504 -14.998,-359.3654 -33.328,-359.3654 -52.977,0 -175.25,173.621 -199.26,282.9374 -32.792,149.302 100.149,435.795 202.221,435.795 16.702,0 30.367,-161.715 30.367,-359.367 z m 4665.873,212.85 c 64.387,-94.343 79.728,-155.235 65.835,-261.303 -16.725,-127.6734 -140.463,-310.9124 -209.955,-310.9124 -16.32,0 -29.672,163.063 -29.672,362.3604 0,399.461 24.335,428.846 173.792,209.855 z M 3918.6502,9373.3186 c 66.425,-24.064 110.266,-76.696 139.124,-167.024 97.079,-303.857 307.058,-640.251 553.933,-887.419 694.896,-695.723 1710.662,-859.832 2605.969,-421.024 480.185,235.349 971.899,804.31 1115.463,1290.701 38.946,131.946 63.251,156.322 201.119,201.71 l 156.82,51.627 v -284.082 c 0,-422.481 -85.995,-789.267 -276.512,-1179.376 -139.289,-285.212 -217.381,-391.783 -475.151,-648.438 -501.563,-499.392 -1028.604,-715.656 -1746.656,-716.715 -949.589,-1.401 -1804.398,528.503 -2223.771,1378.537 -159.377,323.043 -230.608,622.736 -260.893,1097.659 -22.902,359.139 -21.07,373.302 44.845,346.707 37.798,-15.25 112.367,-43.539 165.71,-62.863 z M 11197.66,12970.654 c -89.553,-52.16 -85.03,-270.236 6.622,-319.287 46.032,-24.635 926.073,-37.201 2605.406,-37.201 2487.981,0 2537.255,1.358 2607.77,71.874 86.497,86.496 89.865,138.003 15.93,243.56 l -55.942,79.869 -2558.449,-1.092 c -1670.815,-0.714 -2580.266,-13.801 -2621.337,-37.723 z m -6.417,-1347.312 c -66.83,-66.83 -74.405,-234.65 -13.348,-295.708 31.429,-31.429 308.485,-43.124 1021.627,-43.124 1060.868,0 1091.448,5.553 1091.448,198.181 0,182.998 -78.925,197.123 -1101.497,197.123 -808.228,0 -949.765,-8.007 -998.23,-56.472 z m 3645.002,-15.402 c -89.523,-89.523 -91.784,-186.461 -6.154,-263.955 51.415,-46.529 139.801,-59.475 406.084,-59.475 368.803,0 426.613,24.568 426.613,181.301 0,167.927 -95.391,214.003 -443.053,214.003 -263.701,0 -322.668,-11.052 -383.49,-71.874 z m -1446.009,-1296.351 c -114.134,-66.495 -146.698,-172.123 -83.024,-269.303 l 57.288,-87.4304 h 1507.682 1507.682 l 57.288,87.4304 c 65.151,99.434 29.359,207.217 -90.029,271.111 -92.952,49.747 -2871.313,48.048 -2956.887,-1.808 z m -1454.13,-2044.3014 c -205.737,-125.445 -226.364,-211.431 -226.214,-943.007 0.152,-743.493 29.619,-847.255 269.023,-947.284 181.985,-76.038 3841.827,-76.802 4023.63,-0.839 227.715,95.145 251.83,175.506 264.599,881.743 13.217,731 -15.349,869.753 -205.383,997.634 l -122.108,82.172 -1944.249,-0.135 c -1864.947,-0.129 -1948.941,-2.995 -2059.298,-70.284 z m 3906.365,-936.131 v -611.246 l -1859.721,9.307 -1859.721,9.308 -9.961,555.509 c -5.478,305.53 -1.942,576.402 7.857,601.939 14.243,37.117 389.243,46.429 1869.681,46.429 h 1851.865 z m 1329.125,-4303.09 c -0.347,-393.724 -18.215,-676.523 -51.654,-817.559 -198.676,-837.949 -882.481,-1527.0176 -1730.613,-1743.9331 -270.613,-69.2112 -424.6,-70.8671 -6590.4408,-70.8671 -6165.839,0 -6319.827,1.6559 -6590.44,70.8671 -442.512,113.1756 -750.242,293.6701 -1100.93,645.7351 -230.46896,231.375 -339.17496,374.377 -438.70696,577.117 -198.925,405.197 -242.016,642.941 -242.63,1338.64 l -0.531,601.939 H 8798.8882 17172.127 Z m -14823.2668,-228.73 c -589.199,-141.036 -817.813,-864.246 -420.081,-1328.907 160.846,-187.912 364.018,-282.305 609.834,-283.327 556.804,-2.315 941.716,509.986 785.895,1045.993 -117.975,405.818 -564.118,664.748 -975.648,566.241 z m 451.674,-464.855 c 138.669,-98.741 204.172,-313.372 141.681,-464.238 -67.736,-163.531 -234.169,-288.627 -384,-288.627 -387.341,0 -573.429,450.098 -299.387,724.14 130.082,130.082 380.7,143.371 541.706,28.725 z m 1895.659,455.586 c -233.137,-63.884 -400.86,-203.039 -510.918,-423.896 -275.473,-552.803 114.084,-1179.858 732.986,-1179.858 459.337,0 802.823,345.947 802.823,808.575 0,548.227 -502.712,938.265 -1024.891,795.179 z m 506.576,-492.261 c 117.943,-117.943 151.526,-246.608 106.72,-408.878 -94.694,-342.956 -563.833,-411.846 -750.276,-110.174 -94.607,153.077 -91.334,302.812 9.911,453.392 147.673,219.631 448.501,250.804 633.645,65.66 z m 3866.175,346.911 c -229.778,-102.563 -414,-396.286 -412.482,-657.659 0.95,-163.667 101.649,-394.151 219.564,-502.552 213.483,-196.258 113.17,-190.448 3273.3318,-189.594 2756.219,0.745 2929.2,4.511 3066.24,66.76 515.903,234.342 549.104,978.636 56.015,1255.767 l -139.161,78.213 -2977.848,-1.406 c -2407.9398,-1.138 -2998.4828,-10.617 -3085.6598,-49.529 z m 6074.9268,-432.576 c 141.079,-141.079 98.306,-401.956 -79.16,-482.815 -61.833,-28.173 -927.549,-39.9 -2945.606,-39.9 H 9260.5362 l -105.046,105.046 c -112.12,112.12 -130.642,210.985 -63.239,337.541 91.373,171.559 -10.623,165.985 3059.3638,167.193 l 2903.517,1.143 z"
   id="path11"
   inkscape:label="cliente"
   inkscape:export-filename="../../templates/Inicio/img/user.svg"
   inkscape:export-xdpi="96"
   inkscape:export-ydpi="96" /></svg>
