<?xml version="1.0" encoding="UTF-8" standalone="no"?>
<!-- Creator: CorelDRAW -->

<svg
   xml:space="preserve"
   width="43.367821mm"
   height="21.624575mm"
   version="1.1"
   style="clip-rule:evenodd;fill-rule:evenodd;image-rendering:optimizeQuality;shape-rendering:geometricPrecision;text-rendering:geometricPrecision"
   viewBox="0 0 5890.3701 2937.1264"
   id="svg1"
   sodipodi:docname="logoBackend.svg"
   inkscape:version="1.4.2 (ebf0e940, 2025-05-08)"
   xmlns:inkscape="http://www.inkscape.org/namespaces/inkscape"
   xmlns:sodipodi="http://sodipodi.sourceforge.net/DTD/sodipodi-0.dtd"
   xmlns="http://www.w3.org/2000/svg"
   xmlns:svg="http://www.w3.org/2000/svg"><sodipodi:namedview
   id="namedview1"
   pagecolor="#ffffff"
   bordercolor="#000000"
   borderopacity="0.25"
   inkscape:showpageshadow="2"
   inkscape:pageopacity="0.0"
   inkscape:pagecheckerboard="0"
   inkscape:deskcolor="#d1d1d1"
   inkscape:document-units="mm"
   inkscape:zoom="2.0800026"
   inkscape:cx="142.78828"
   inkscape:cy="67.307607"
   inkscape:window-width="1920"
   inkscape:window-height="1027"
   inkscape:window-x="1440"
   inkscape:window-y="25"
   inkscape:window-maximized="1"
   inkscape:current-layer="svg1" />
 <defs
   id="defs1">
  <style
   type="text/css"
   id="style1">
   <![CDATA[
    .fil0 {fill:#5D0B0D}
   ]]>
  </style>
 <clipPath
   id="id0"
   style="clip-rule:nonzero">
    <path
   d="m 671.77,2241.6 h 3514.97 v 181.59 H 671.77 Z m 0,0 z"
   id="path1" />
   </clipPath><clipPath
   id="id1"
   style="clip-rule:nonzero">
    <path
   d="M 1452.87,0 H 2458.84 V 833.25 H 1452.87 Z m 0,0 z"
   id="path2" />
   </clipPath></defs>
 
<g
   style="clip-rule:evenodd;fill-rule:evenodd;image-rendering:optimizeQuality;shape-rendering:geometricPrecision;text-rendering:geometricPrecision"
   clip-path="url(#id0)"
   id="g3"
   transform="scale(1.2125593)">
   <g
   id="_2546555291472">
    <path
   class="fil0"
   d="m 791.36,2274.52 c 8.55,3.74 16.04,9.1 22.98,15.53 l 11.19,-13.92 c -8,-8 -17.61,-13.92 -28.29,-18.17 -10.63,-4.81 -21.87,-6.93 -33.05,-6.93 -16.55,0 -30.97,4.25 -44.29,11.74 -13.36,7.49 -24.04,17.66 -32.04,31.02 -8,13.36 -11.74,27.27 -11.74,43.32 0,15.49 3.74,29.91 11.74,43.27 7.49,13.41 18.17,23.53 31.48,31.02 13.36,8.04 27.74,11.79 43.78,11.79 11.75,0 22.93,-2.17 34.12,-6.98 10.68,-4.81 20.3,-10.68 28.85,-18.68 l -11.74,-12.85 c -6.93,6.43 -14.93,11.24 -23.48,14.98 -8.55,3.74 -17.62,5.32 -26.68,5.32 -12.3,0 -24.04,-3.19 -34.72,-9.06 -10.12,-5.87 -18.68,-14.43 -25.06,-25.15 -5.87,-10.12 -9.06,-21.36 -9.06,-33.66 0,-12.3 3.19,-24.08 9.06,-34.26 6.38,-10.68 14.93,-19.23 25.06,-25.1 10.68,-5.87 22.42,-9.11 34.72,-9.11 9.06,0 18.12,2.13 27.18,5.87 z m 198.56,-11.75 c -13.36,-7.49 -27.78,-11.74 -44.29,-11.74 -16.04,0 -30.97,4.25 -44.33,11.74 -13.87,7.49 -23.99,17.66 -31.99,31.02 -8,13.36 -12.3,27.27 -12.3,43.32 0,15.49 4.3,29.91 12.3,43.27 8,13.41 18.12,23.53 31.99,31.02 13.36,8.04 28.29,11.79 44.33,11.79 16.51,0 30.93,-3.74 44.29,-11.79 13.87,-7.49 24.55,-17.61 32.54,-31.02 7.44,-13.36 11.75,-27.78 11.75,-43.27 0,-16.04 -4.3,-29.96 -11.75,-43.32 -8,-13.36 -18.68,-23.53 -32.54,-31.02 z m -78.45,15.49 c 10.68,-6.38 21.87,-9.06 34.16,-9.06 12.25,0 23.99,2.68 34.67,9.06 10.12,5.92 18.68,13.92 25.06,24.59 5.87,10.17 9.1,21.96 9.1,34.26 0,12.3 -3.23,24.04 -9.1,34.21 -6.38,10.68 -14.93,19.23 -25.06,25.1 -10.68,5.92 -22.42,9.11 -34.67,9.11 -12.3,0 -23.48,-3.19 -34.16,-9.11 -10.68,-5.87 -19.23,-14.42 -25.1,-25.1 -6.38,-10.17 -9.61,-21.91 -9.61,-34.21 0,-12.3 3.23,-24.08 9.61,-34.26 5.87,-10.68 14.42,-18.68 25.1,-24.59 z m 295.64,-25.66 v 137.95 L 1105.73,2252.6 h -19.79 v 168.97 h 19.23 v -137.39 l 101.38,137.39 h 19.74 V 2252.6 h -19.19 z m 64.03,0 v 17.66 h 54.97 v 151.31 h 19.74 v -151.31 h 54.97 v -17.66 z m 283.9,168.97 h 21.36 l -75.77,-168.97 h -19.74 l -75.82,168.97 h 20.29 l 18.68,-43.32 h 91.81 z m -103,-60.93 37.91,-87.19 38.42,87.19 h -76.32 z m 279.64,-96.81 c -13.36,-7.49 -27.74,-11.23 -44.29,-11.23 h -68.33 v 168.97 h 67.77 c 16.55,0 31.48,-3.19 44.84,-10.68 12.81,-7.49 23.49,-17.66 31.48,-30.51 7.49,-12.81 11.18,-27.23 11.18,-43.27 0,-15.53 -3.7,-29.96 -11.18,-42.81 -8,-12.81 -18.12,-22.98 -31.48,-30.47 z m -10.12,131.52 c -10.17,5.92 -21.36,8.55 -33.66,8.55 h -49.1 v -133.65 h 48.03 c 12.81,0 24.04,3.19 34.72,9.1 10.12,5.87 18.12,13.87 24.55,24.04 5.87,10.17 8.5,21.41 8.5,34.21 0,12.3 -2.63,23.53 -8.5,33.7 -6.43,10.17 -14.43,18.17 -24.55,24.04 z m 217.7,-132.59 c -13.87,-7.49 -28.25,-11.74 -44.8,-11.74 -16.04,0 -30.97,4.25 -44.29,11.74 -13.36,7.49 -24.04,17.66 -32.04,31.02 -8,13.36 -11.74,27.27 -11.74,43.32 0,15.49 3.74,29.91 11.74,43.27 8,13.41 18.68,23.53 32.04,31.02 13.32,8.04 28.25,11.79 44.29,11.79 16.55,0 30.93,-3.74 44.8,-11.79 13.36,-7.49 24.04,-17.61 32.04,-31.02 8,-13.36 11.74,-27.78 11.74,-43.27 0,-16.04 -3.74,-29.96 -11.74,-43.32 -8,-13.36 -18.68,-23.53 -32.04,-31.02 z m -78.96,15.49 c 10.68,-6.38 21.87,-9.06 34.17,-9.06 12.25,0 23.99,2.68 34.67,9.06 10.12,5.92 18.68,13.92 25.1,24.59 5.87,10.17 9.06,21.96 9.06,34.26 0,12.3 -3.24,24.04 -9.06,34.21 -6.43,10.68 -14.98,19.23 -25.1,25.1 -10.68,5.92 -22.42,9.11 -34.67,9.11 -12.3,0 -23.49,-3.19 -34.17,-9.11 -10.68,-5.87 -18.68,-14.42 -25.1,-25.1 -6.38,-10.17 -9.57,-21.91 -9.57,-34.21 0,-12.3 3.19,-24.08 9.57,-34.26 6.43,-10.68 14.43,-18.68 25.1,-24.59 z m 284.96,143.31 h 21.87 l -39.99,-57.74 c 12.81,-3.74 21.87,-10.17 28.24,-19.79 6.93,-9.11 10.17,-20.85 10.17,-34.77 0,-18.17 -5.87,-32.08 -17.61,-41.7 -11.75,-10.17 -28.29,-14.98 -49.1,-14.98 h -64.03 v 168.97 H 2054 v -53.49 h 44.84 c 2.63,0 6.38,0 10.68,-0.51 l 35.74,54 z m -46.41,-71.1 h -44.84 v -80.21 h 44.84 c 15.49,0 27.18,3.74 35.74,10.17 8,6.93 12.3,16.55 12.3,29.4 0,13.36 -4.3,23.53 -12.3,29.91 -8.55,6.98 -20.25,10.73 -35.74,10.73 z m 127,-97.87 v 168.97 h 117.42 v -17.66 h -98.19 v -58.81 h 85.39 v -17.66 h -85.39 v -57.19 h 94.96 v -17.66 h -114.19 z m 246.04,20.34 c 8,2.68 16,6.42 22.93,10.68 l 8,-17.1 c -6.93,-4.81 -14.93,-8.55 -24.55,-11.24 -9.62,-2.68 -19.19,-4.25 -28.8,-4.25 -11.74,0 -21.87,1.57 -30.42,5.32 -9.06,3.74 -16,9.11 -20.8,15.53 -4.81,6.38 -6.93,13.87 -6.93,22.98 0,10.17 2.13,18.17 7.44,24.59 4.81,6.43 10.68,11.24 17.62,13.92 6.93,3.19 16,6.93 27.23,10.12 10.12,3.23 17.62,5.92 22.93,8.04 5.87,2.13 10.17,5.87 13.87,9.61 3.75,4.3 5.36,9.61 5.36,16.6 0,8.55 -3.24,14.93 -10.17,19.23 -7.44,4.81 -17.06,7.49 -29.31,7.49 -9.62,0 -19.23,-2.13 -29.36,-6.42 -10.17,-4.25 -19.23,-10.17 -26.72,-17.66 l -8.51,16.6 c 8,8 18.12,14.42 29.36,19.23 11.19,4.81 22.93,6.98 35.23,6.98 11.69,0 22.37,-2.17 31.99,-5.92 9.06,-3.7 16.55,-9.06 21.36,-16 5.32,-7.49 7.44,-15.53 7.44,-25.15 0,-10.17 -2.13,-18.17 -6.93,-25.15 -5.32,-5.87 -11.19,-10.68 -18.12,-13.87 -6.93,-3.23 -16.55,-6.98 -27.74,-10.73 -9.62,-2.68 -17.11,-5.32 -22.42,-8 -5.87,-2.13 -10.12,-5.36 -13.87,-9.11 -3.74,-4.25 -5.36,-9.06 -5.36,-16.04 0,-6.93 3.24,-12.81 9.62,-17.11 6.42,-4.25 15.49,-6.43 26.16,-6.43 6.93,0 14.93,1.06 23.49,3.24 z m 289.22,148.63 h 21.36 l -75.77,-168.97 h -19.74 l -75.82,168.97 h 20.3 l 19.23,-43.32 h 91.77 l 18.68,43.32 z m -103,-60.93 37.91,-87.19 38.42,87.19 z m 238.04,-87.7 c 8,2.68 15.44,6.42 22.93,10.68 l 8,-17.1 c -6.93,-4.81 -15.49,-8.55 -24.55,-11.24 -9.61,-2.68 -19.19,-4.25 -28.8,-4.25 -11.74,0 -21.87,1.57 -30.42,5.32 -9.06,3.74 -16,9.11 -20.8,15.53 -4.81,6.38 -6.93,13.87 -6.93,22.98 0,10.17 2.13,18.17 7.44,24.59 4.81,6.43 10.68,11.24 17.61,13.92 6.93,3.19 16,6.93 27.23,10.12 10.12,3.23 17.61,5.92 22.93,8.04 5.36,2.13 10.17,5.87 13.87,9.61 3.74,4.3 5.36,9.61 5.36,16.6 0,8.55 -3.75,14.93 -10.68,19.23 -6.93,4.81 -16.55,7.49 -28.8,7.49 -9.61,0 -19.23,-2.13 -29.35,-6.42 -10.17,-4.25 -19.23,-10.17 -26.72,-17.66 l -8.5,16.6 c 8,8 17.61,14.42 29.35,19.23 11.19,4.81 22.93,6.98 35.23,6.98 11.7,0 22.38,-2.17 31.99,-5.92 9.06,-3.7 16,-9.06 21.36,-16 4.81,-7.49 7.44,-15.53 7.44,-25.15 0,-10.17 -2.63,-18.17 -7.44,-25.15 -4.81,-5.87 -10.68,-10.68 -17.62,-13.87 -6.93,-3.23 -16.55,-6.98 -27.74,-10.73 -9.61,-2.68 -17.11,-5.32 -22.42,-8 -5.87,-2.13 -10.12,-5.36 -13.87,-9.11 -3.74,-4.25 -5.87,-9.06 -5.87,-16.04 0,-6.93 3.75,-12.81 10.12,-17.11 6.43,-4.25 14.93,-6.43 26.17,-6.43 6.93,0 14.93,1.06 23.48,3.24 z m 208.13,-10.17 c -13.36,-7.49 -27.78,-11.74 -44.34,-11.74 -16,0 -30.93,4.25 -44.29,11.74 -13.87,7.49 -23.99,17.66 -31.99,31.02 -8,13.36 -12.3,27.27 -12.3,43.32 0,15.49 4.3,29.91 12.3,43.27 8,13.41 18.12,23.53 31.99,31.02 13.36,8.04 28.29,11.79 44.29,11.79 16.55,0 30.97,-3.74 44.34,-11.79 13.87,-7.49 24.55,-17.61 32.54,-31.02 7.44,-13.36 11.74,-27.78 11.74,-43.27 0,-16.04 -4.3,-29.96 -11.74,-43.32 -8,-13.36 -18.68,-23.53 -32.54,-31.02 z m -78.45,15.49 c 10.68,-6.38 21.87,-9.06 34.12,-9.06 12.3,0 24.04,2.68 34.17,9.06 10.68,5.92 19.23,13.92 25.1,24.59 6.38,10.17 9.61,21.96 9.61,34.26 0,12.3 -3.24,24.04 -9.61,34.21 -5.87,10.68 -14.43,19.23 -25.1,25.1 -10.12,5.92 -21.87,9.11 -34.17,9.11 -12.25,0 -23.44,-3.19 -34.12,-9.11 -10.68,-5.87 -19.23,-14.42 -25.1,-25.1 -6.38,-10.17 -9.62,-21.91 -9.62,-34.21 0,-12.3 3.24,-24.08 9.62,-34.26 5.87,-10.68 14.42,-18.68 25.1,-24.59 z m 269.48,-3.74 c 9.06,3.74 16.55,9.1 22.93,15.53 l 11.75,-13.92 c -8,-8 -17.62,-13.92 -28.25,-18.17 -11.24,-4.81 -21.91,-6.93 -33.66,-6.93 -16,0 -30.93,4.25 -43.74,11.74 -13.87,7.49 -24.55,17.66 -32.54,31.02 -7.49,13.36 -11.74,27.27 -11.74,43.32 0,15.49 4.25,29.91 11.74,43.27 8,13.41 18.68,23.53 31.99,31.02 13.36,8.04 27.78,11.79 43.78,11.79 11.74,0 22.93,-2.17 33.61,-6.98 11.19,-4.81 20.81,-10.68 28.8,-18.68 l -11.75,-12.85 c -6.38,6.43 -14.38,11.24 -22.93,14.98 -8.55,3.74 -17.61,5.32 -26.67,5.32 -12.81,0 -24.04,-3.19 -34.67,-9.06 -10.68,-5.87 -19.23,-14.43 -25.1,-25.15 -5.87,-10.12 -9.06,-21.36 -9.06,-33.66 0,-12.3 3.19,-24.08 9.06,-34.26 5.87,-10.68 14.42,-19.23 25.1,-25.1 10.63,-5.87 21.87,-9.11 34.67,-9.11 9.06,0 18.12,2.13 26.67,5.87 z m 86.45,-21.91 v 168.97 h 19.23 V 2252.6 Z m 212.38,168.97 h 21.36 l -75.77,-168.97 h -19.74 l -75.77,168.97 h 20.25 l 18.68,-43.32 h 91.81 l 19.19,43.32 z m -103,-60.93 37.91,-87.19 38.42,87.19 h -76.32 z m 279.64,-96.81 c -13.31,-7.49 -27.74,-11.23 -44.29,-11.23 h -68.28 v 168.97 h 67.77 c 16.51,0 31.48,-3.19 44.29,-10.68 13.32,-7.49 23.99,-17.66 31.99,-30.51 7.49,-12.81 11.24,-27.23 11.24,-43.27 0,-15.53 -3.75,-29.96 -11.24,-42.81 -8,-12.81 -18.12,-22.98 -31.48,-30.47 z m -10.12,131.52 c -10.12,5.92 -21.36,8.55 -33.61,8.55 h -49.1 v -133.65 h 48.03 c 12.81,0 23.99,3.19 34.67,9.1 10.12,5.87 18.12,13.87 24.55,24.04 5.87,10.17 8.55,21.41 8.55,34.21 0,12.3 -2.68,23.53 -8.55,33.7 -6.43,10.17 -14.43,18.17 -24.55,24.04 z m 217.74,-132.59 c -13.92,-7.49 -28.29,-11.74 -44.84,-11.74 -16,0 -30.97,4.25 -44.29,11.74 -13.87,7.49 -24.04,17.66 -32.04,31.02 -8,13.36 -11.74,27.27 -11.74,43.32 0,15.49 3.74,29.91 11.74,43.27 8,13.41 18.17,23.53 32.04,31.02 13.31,8.04 28.29,11.79 44.29,11.79 16.55,0 30.93,-3.74 44.84,-11.79 13.32,-7.49 23.99,-17.61 31.99,-31.02 8,-13.36 11.74,-27.78 11.74,-43.27 0,-16.04 -3.74,-29.96 -11.74,-43.32 -8,-13.36 -18.68,-23.53 -31.99,-31.02 z m -79.01,15.49 c 10.68,-6.38 21.87,-9.06 34.17,-9.06 12.25,0 23.99,2.68 34.67,9.06 10.17,5.92 18.68,13.92 25.1,24.59 5.87,10.17 9.06,21.96 9.06,34.26 0,12.3 -3.19,24.04 -9.06,34.21 -6.42,10.68 -14.93,19.23 -25.1,25.1 -10.68,5.92 -22.42,9.11 -34.67,9.11 -12.3,0 -23.48,-3.19 -34.17,-9.11 -10.68,-5.87 -18.68,-14.42 -25.05,-25.1 -6.43,-10.17 -9.62,-21.91 -9.62,-34.21 0,-12.3 3.19,-24.08 9.62,-34.26 6.38,-10.68 14.38,-18.68 25.05,-24.59 z m 246.55,-5.32 c 8.55,2.68 16.04,6.42 23.49,10.68 l 8,-17.1 c -6.93,-4.81 -15.44,-8.55 -24.55,-11.24 -9.57,-2.68 -19.19,-4.25 -28.8,-4.25 -11.74,0 -21.87,1.57 -30.42,5.32 -9.06,3.74 -16,9.11 -20.81,15.53 -4.81,6.38 -6.93,13.87 -6.93,22.98 0,10.17 2.13,18.17 7.44,24.59 4.81,6.43 10.68,11.24 17.61,13.92 6.93,3.19 16.04,6.93 27.23,10.12 10.12,3.23 17.61,5.92 22.93,8.04 5.36,2.13 10.17,5.87 13.87,9.61 3.74,4.3 5.36,9.61 5.36,16.6 0,8.55 -3.74,14.93 -10.68,19.23 -6.93,4.81 -16.55,7.49 -28.8,7.49 -9.61,0 -19.74,-2.13 -29.35,-6.42 -10.17,-4.25 -19.23,-10.17 -26.68,-17.66 l -9.1,16.6 c 8.55,8 18.17,14.42 29.91,19.23 11.18,4.81 22.93,6.98 35.23,6.98 11.75,0 22.42,-2.17 31.99,-5.92 9.11,-3.7 16.04,-9.06 21.36,-16 4.81,-7.49 7.49,-15.53 7.49,-25.15 0,-10.17 -2.68,-18.17 -7.49,-25.15 -4.81,-5.87 -10.68,-10.68 -17.61,-13.87 -6.94,-3.23 -16.55,-6.98 -27.74,-10.73 -9.61,-2.68 -17.1,-5.32 -22.98,-8 -5.31,-2.13 -10.12,-5.36 -13.31,-9.11 -3.75,-4.25 -5.87,-9.06 -5.87,-16.04 0,-6.93 3.74,-12.81 10.12,-17.11 6.43,-4.25 14.94,-6.43 26.17,-6.43 6.93,0 14.93,1.06 22.93,3.24 z m 0,0 z"
   id="path3"
   style="fill:#5d0b0d;fill-rule:nonzero" />
   </g>
  </g><path
   class="fil1"
   d="M 814.56098,2718.073 H 5076.6706 v 220.1886 H 814.56098 Z m 0,0 z"
   id="path4"
   style="clip-rule:evenodd;fill:none;fill-rule:nonzero;stroke-width:1.21256;image-rendering:optimizeQuality;shape-rendering:geometricPrecision;text-rendering:geometricPrecision" /><path
   class="fil2"
   d="M 682.6588,1408.2058 425.1354,2094.7932 162.39805,1408.2058 H 0 l 357.19574,897.2939 h 137.17684 l 348.78058,-897.2939 z m 845.7237,897.2939 h 159.8154 l -370.7643,-897.2939 h -137.8438 l -359.7663,897.2939 h 155.94727 l 76.35483,-195.1858 h 399.2352 z m -278.2702,-705.4186 150.1755,378.6095 h -297.6591 z m 733.8409,567.9629 421.8857,-732.6647 v -27.1856 h -629.6335 v 136.7766 h 403.1639 l -423.838,737.1513 v 23.3781 h 663.8762 v -137.4436 h -435.4543 z m 1487.6284,237.9041 -172.7655,-202.2549 c 93.161,-83.6303 150.1149,-206.1714 150.1149,-346.8768 0,-265.8173 -200.6301,-465.4894 -471.7219,-465.4894 -272.4378,0 -473.0074,200.3512 -473.0074,465.4894 0,265.1503 200.5696,464.8831 473.0074,464.8831 78.9254,0 152.0306,-16.8789 216.1023,-47.3747 l 112.6225,131.6233 z m -494.3725,-226.2515 c -185.0972,0 -322.8925,-139.4079 -322.8925,-322.8923 0,-184.1393 137.7953,-323.4988 322.8925,-323.4988 184.4303,0 321.607,138.741 321.607,323.4988 0,94.6766 -36.2676,176.9729 -95.8043,235.3213 L 3065.2287,1931.3524 H 2899.581 l 195.416,228.2036 c -36.2676,13.0108 -75.7364,20.1285 -117.7758,20.1285 z m 1009.4192,141.9908 c 205.7834,0 359.1601,-145.2403 359.1601,-352.0909 v -561.4028 h -148.1626 v 552.3813 c 0,132.2418 -88.0076,219.1216 -210.9975,219.1216 -124.8329,0 -212.8526,-86.8798 -212.8526,-219.1216 v -552.3813 h -147.5442 v 561.4028 c 0,206.8506 153.3765,352.0909 360.3848,352.0909 z M 4726.92,2166.0675 V 1915.771 h 339.6987 V 1780.9587 H 4726.92 v -234.703 h 372.7166 v -138.062 h -520.2608 v 897.2939 h 534.496 v -139.408 h -386.9637 z m 727.948,1.9644 421.9342,-732.6647 v -27.1857 h -629.6337 v 136.7768 h 403.7824 l -424.4563,737.1511 v 23.3782 h 663.8762 V 2168.044 H 5454.868 Z m 0,0 z"
   id="path5"
   style="clip-rule:evenodd;fill:#1c2d41;fill-rule:nonzero;stroke-width:1.21256;image-rendering:optimizeQuality;shape-rendering:geometricPrecision;text-rendering:geometricPrecision" /><g
   style="clip-rule:evenodd;fill-rule:evenodd;image-rendering:optimizeQuality;shape-rendering:geometricPrecision;text-rendering:geometricPrecision"
   clip-path="url(#id1)"
   id="g6"
   transform="scale(1.2125593)">
   <g
   id="_2546555290944">
    <path
   class="fil3"
   d="m 1463.27,0 h 287.09 l 704.96,823.4 h -287.64 z m 0,0 z"
   id="path6"
   style="fill:#5d0b0d" />
   </g>
  </g><path
   class="fil1"
   d="M 1761.6911,0 H 2981.4894 V 1010.3651 H 1761.6911 Z m 0,0 z"
   id="path7"
   style="clip-rule:evenodd;fill:none;fill-rule:nonzero;stroke-width:1.21256;image-rendering:optimizeQuality;shape-rendering:geometricPrecision;text-rendering:geometricPrecision" /><path
   class="fil3"
   d="m 3752.4346,499.18639 h -348.1743 l -427.0391,499.23496 h 348.1136 l 427.0876,-499.23496 z m 0,0 z"
   id="path8"
   style="clip-rule:evenodd;fill:#5d0b0d;fill-rule:evenodd;stroke-width:1.21256;image-rendering:optimizeQuality;shape-rendering:geometricPrecision;text-rendering:geometricPrecision" /></svg>
